<?xml version="1.0" standalone="no"?>
<!DOCTYPE svg PUBLIC "-//W3C//DTD SVG 20010904//EN"
 "http://www.w3.org/TR/2001/REC-SVG-20010904/DTD/svg10.dtd">
<svg version="1.0" xmlns="http://www.w3.org/2000/svg"
 width="500.000000pt" height="500.000000pt" viewBox="0 0 500.000000 500.000000"
 preserveAspectRatio="xMidYMid meet">

<g transform="translate(0.000000,500.000000) scale(0.100000,-0.100000)"
fill="#000000" stroke="none">
<path d="M1510 3345 c0 -8 622 -1089 638 -1107 8 -10 19 -15 24 -12 19 12 68
98 68 118 0 12 -128 242 -283 511 l-284 490 -81 3 c-45 2 -82 0 -82 -3z"/>
<path d="M1869 3303 c128 -214 541 -944 541 -958 0 -14 -198 -365 -373 -662
l-19 -33 85 0 86 0 71 125 c39 69 73 125 75 125 2 0 36 -56 75 -125 60 -104
75 -125 95 -125 21 0 80 99 496 828 260 455 479 837 487 850 l14 22 -83 0 -84
-1 -47 -82 c-206 -364 -735 -1279 -755 -1304 -13 -18 -28 -33 -33 -33 -13 0
-70 101 -70 123 0 10 101 192 223 405 385 666 507 879 507 886 0 4 -37 6 -82
4 l-82 -3 -236 -410 c-180 -312 -241 -410 -256 -410 -14 0 -65 80 -209 330
-104 182 -211 367 -238 413 l-48 82 -84 0 -85 0 29 -47z"/>
</g>
</svg>
