<?xml version="1.0" standalone="no"?>
<!DOCTYPE svg PUBLIC "-//W3C//DTD SVG 20010904//EN"
 "http://www.w3.org/TR/2001/REC-SVG-20010904/DTD/svg10.dtd">
<svg version="1.0" xmlns="http://www.w3.org/2000/svg"
 width="212.000000pt" height="173.000000pt" viewBox="0 0 212.000000 173.000000"
 preserveAspectRatio="xMidYMid meet">

<g transform="translate(0.000000,173.000000) scale(0.100000,-0.100000)"
fill="#ffffff" stroke="none">
<path d="M70 1695 c0 -5 27 -51 262 -460 63 -110 171 -297 238 -415 139 -243
147 -255 166 -239 20 16 64 95 64 115 0 18 -12 39 -165 304 -56 96 -139 240
-185 320 -46 80 -115 198 -152 263 l-69 117 -80 0 c-43 0 -79 -2 -79 -5z"/>
<path d="M414 1684 c3 -9 34 -64 68 -122 33 -59 70 -123 81 -142 11 -19 107
-186 213 -371 107 -184 194 -344 194 -354 0 -11 -36 -80 -79 -155 -43 -74
-129 -223 -191 -330 -62 -107 -114 -198 -117 -202 -2 -5 34 -8 81 -8 l85 0 71
125 c39 69 73 125 75 125 2 0 36 -56 75 -125 58 -100 77 -125 94 -125 18 0 46
41 156 233 73 127 148 257 166 287 96 164 659 1157 662 1167 3 10 -17 13 -75
13 l-78 0 -81 -143 c-44 -78 -151 -263 -236 -412 -86 -148 -231 -400 -323
-560 -91 -159 -171 -293 -177 -296 -6 -4 -16 -5 -22 -3 -17 7 -66 92 -66 116
0 12 67 136 149 277 81 141 209 362 283 491 74 129 172 299 217 377 44 78 81
144 81 147 0 3 -37 6 -82 6 l-83 -1 -65 -116 c-189 -338 -409 -708 -422 -711
-16 -3 -54 55 -175 268 -91 159 -209 364 -270 468 l-55 92 -80 0 c-69 0 -79
-2 -74 -16z"/>
</g>
</svg>
